<svg aria-hidden="true" style="width:0;height:0;position:absolute;overflow:hidden" xmlns="http://www.w3.org/2000/svg"><defs><symbol id="icon-arrow-right" viewBox="0 0 32 32"><path d="M21.733 27.718c.171-.185.267-.433.267-.691s-.096-.506-.267-.691L12.166 16l9.567-10.334c.171-.185.267-.433.267-.691s-.096-.506-.267-.691a.878.878 0 0 0-.64-.284c-.119 0-.237.025-.347.074s-.209.12-.293.21L10.279 15.278C10.1 15.471 10 15.73 10 16s.1.529.279.722l10.174 10.994a.878.878 0 0 0 .64.284c.119 0 .237-.025.347-.074s.209-.12.293-.21v.002z"/></symbol><symbol id="icon-arrow-left" viewBox="0 0 32 32"><path d="M10.267 4.282c-.171.185-.267.433-.267.691s.096.506.267.691L19.834 16l-9.567 10.334c-.171.185-.267.433-.267.691s.096.506.267.691a.878.878 0 0 0 .64.284c.119 0 .237-.025.347-.074s.209-.12.293-.21l10.174-10.994C21.9 16.529 22 16.27 22 16s-.1-.529-.279-.722L11.547 4.284a.878.878 0 0 0-.64-.284c-.119 0-.237.025-.347.074s-.209.12-.293.21v-.002z"/></symbol><symbol id="icon-arrow-botom" viewBox="0 0 32 32"><path d="M27.718 10.267c-.185-.171-.433-.267-.691-.267s-.506.096-.691.267L16 19.834 5.666 10.267c-.185-.171-.433-.267-.691-.267s-.506.096-.691.267a.878.878 0 0 0-.284.64c0 .119.025.237.074.347s.12.209.21.293l10.994 10.174c.193.179.452.279.722.279s.529-.1.722-.279l10.994-10.174a.878.878 0 0 0 .284-.64c0-.119-.025-.237-.074-.347s-.12-.209-.21-.293h.002z"/></symbol><symbol id="icon-arrow-top" viewBox="0 0 32 32"><path d="M4.282 21.733c.185.171.433.267.691.267s.506-.096.691-.267L16 12.166l10.334 9.567c.185.171.433.267.691.267s.506-.096.691-.267a.878.878 0 0 0 .284-.64c0-.119-.025-.237-.074-.347s-.12-.209-.21-.293L16.722 10.279C16.529 10.1 16.27 10 16 10s-.529.1-.722.279L4.284 20.453a.878.878 0 0 0-.284.64c0 .119.025.237.074.347s.12.209.21.293h-.002z"/></symbol><symbol id="icon-menu-nod" viewBox="0 0 32 32"><path d="M16 13.889 23.389 6.5 25.5 8.611 18.111 16l7.389 7.389-2.111 2.111L16 18.111 8.611 25.5 6.5 23.389 13.889 16 6.5 8.611 8.611 6.5 16 13.889z"/></symbol><symbol id="icon-menu" viewBox="0 0 32 32"><path stroke-width="1.032" d="M0 7.742h32M0 16h32M0 24.258h32"/></symbol><symbol id="icon-twitter" viewBox="0 0 32 32"><path d="M21.384 3.994c1.652 0 3.143.674 4.193 1.756a11.79 11.79 0 0 0 3.645-1.348 5.608 5.608 0 0 1-2.524 3.073 11.802 11.802 0 0 0 3.299-.877 11.522 11.522 0 0 1-2.866 2.877c.01.238.016.478.016.717 0 7.343-5.778 15.813-16.344 15.813-3.243 0-6.264-.923-8.805-2.499.454.053.912.079 1.369.079 2.691 0 5.169-.888 7.136-2.38-2.515-.043-4.638-1.651-5.366-3.858a5.885 5.885 0 0 0 2.593-.095c-2.628-.509-4.608-2.755-4.608-5.449v-.071c.775.417 1.66.667 2.603.696-1.542-.998-2.556-2.696-2.556-4.625 0-1.019.284-1.974.778-2.792 2.832 3.36 7.065 5.573 11.84 5.806a5.413 5.413 0 0 1-.149-1.265c0-3.07 2.572-5.557 5.746-5.557zm8.614 2.604zM21.384 2c-3.925 0-7.176 2.86-7.677 6.555-3.211-.643-6.132-2.339-8.23-4.827a2.001 2.001 0 0 0-3.241.255 7.385 7.385 0 0 0-.596 6.413 1.993 1.993 0 0 0-.515 1.337v.071a7.45 7.45 0 0 0 2.059 5.123c-.074.342-.057.7.055 1.043a7.498 7.498 0 0 0 2.297 3.388 9.994 9.994 0 0 1-3.3.17 1.996 1.996 0 0 0-2.122 1.32c-.31.882.034 1.86.83 2.354a18.68 18.68 0 0 0 9.861 2.8c11.37 0 18.209-8.877 18.342-17.549a13.385 13.385 0 0 0 2.45-2.653c.263-.345.405-.766.405-1.199 0-.678-.34-1.278-.858-1.638a1.994 1.994 0 0 0-1.918-2.552c-.351 0-.695.092-.999.267-.661.38-1.367.68-2.111.897a7.906 7.906 0 0 0-4.729-1.573z"/></symbol><symbol id="icon-youtube" viewBox="0 0 32 32"><path d="M29.384 5.513C28.518 4.863 26.104 4 15.992 4 5.155 4 3.547 4.991 3.031 5.316.285 7.036.024 14.648 0 16.192c.033 2.039.349 8.822 3.029 10.5.515.323 2.114 1.309 12.963 1.309 10.119 0 12.53-.859 13.392-1.506 2.34-1.755 2.61-7.799 2.616-10.329-.006-2.035-.211-8.846-2.616-10.652zm-1.167 19.291c-.348.261-2.347 1.114-12.226 1.114-9.55 0-11.554-.773-11.933-1.011-.964-.603-1.981-3.803-2.061-8.721.079-4.907 1.11-8.49 2.063-9.085.38-.239 2.391-1.018 11.931-1.018 9.871 0 11.875.858 12.226 1.12.856.642 1.772 4.024 1.785 8.969-.013 5.022-.935 7.995-1.785 8.632zm-5.711-9.623-8.988-5.749a.967.967 0 0 0-1.007-.015c-.154.091-.283.222-.372.382s-.136.341-.137.525v11.5c0 .276.105.541.293.736s.441.305.706.305c.182 0 .36-.052.516-.149l8.989-5.751c.3-.189.483-.527.483-.892s-.183-.704-.483-.892zm-8.505 4.798v-7.812l6.056 3.906-6.056 3.907z"/></symbol><symbol id="icon-instagram" viewBox="0 0 32 32"><path d="M16 0c4.355 0 4.892.032 6.596.095 1.673.063 2.84.347 3.882.757 1.073.41 1.957.947 2.84 1.83s1.42 1.767 1.83 2.84c.41 1.041.694 2.209.757 3.882.063 1.704.095 2.241.095 6.596s-.032 4.892-.095 6.596c-.063 1.673-.347 2.84-.757 3.882-.41 1.073-.947 1.957-1.83 2.84s-1.767 1.42-2.84 1.83c-1.042.41-2.209.694-3.882.757-1.704.063-2.241.095-6.596.095s-4.892-.032-6.596-.095c-1.673-.063-2.84-.347-3.882-.757-1.073-.41-1.957-.947-2.84-1.83s-1.42-1.767-1.83-2.84c-.41-1.042-.694-2.209-.757-3.882C.032 20.892 0 20.355 0 16s.032-4.892.095-6.596c.063-1.673.347-2.84.757-3.882.41-1.073.947-1.957 1.83-2.84s1.767-1.42 2.84-1.83C6.563.442 7.731.158 9.404.095 11.108.032 11.645 0 16 0zm0 2.083c-4.544 0-5.081.032-6.848.095-1.641.063-2.556.379-3.156.6-1.546.631-2.588 1.673-3.219 3.219-.221.6-.536 1.515-.6 3.156-.063 1.767-.095 2.304-.095 6.848s.032 5.081.095 6.848c.063 1.641.379 2.556.6 3.156.631 1.546 1.673 2.588 3.219 3.219.6.221 1.515.537 3.156.6 1.767.063 2.304.095 6.848.095s5.081-.032 6.848-.095c1.641-.063 2.556-.379 3.156-.6 1.546-.631 2.588-1.673 3.219-3.219.221-.6.537-1.515.6-3.156.063-1.767.095-2.304.095-6.848s-.032-5.081-.095-6.848c-.063-1.641-.379-2.556-.6-3.156-.631-1.546-1.673-2.588-3.219-3.219-.6-.221-1.515-.536-3.156-.6-1.767-.063-2.304-.095-6.848-.095zm0 20.323c3.535 0 6.406-2.872 6.406-6.406S19.534 9.594 16 9.594c-3.535 0-6.406 2.872-6.406 6.406s2.872 6.406 6.406 6.406zm0-14.611c4.544 0 8.205 3.661 8.205 8.205S20.544 24.205 16 24.205c-4.544 0-8.205-3.661-8.205-8.205S11.456 7.795 16 7.795zm10.477-.316c0 1.073-.884 1.893-1.957 1.893s-1.894-.821-1.894-1.893.821-1.957 1.894-1.957 1.957.884 1.957 1.957z"/></symbol><symbol id="icon-tumblr" viewBox="0 0 32 32"><path d="M17.524 1.999v6.992h7.339v2.998h-7.307l-.01 8.7c0 1.617.088 2.655.267 3.116.279.726 1.295 1.656 3.18 1.656 1.462 0 3.435-.42 4.913-1.476v4.664c-1.233.561-2.379.788-3.378 1.014-1 .225-2.083.339-3.244.339-1.294 0-5.028-.034-6.56-3.761-.276-.671-.414-1.645-.414-2.92V11.995H8.094l.02-3.065c1.396 0 5.583-.809 5.583-6.93h3.827zm0-1.999h-3.827c-1.156 0-2.094.895-2.094 1.999 0 4.576-2.671 4.931-3.489 4.931-1.152 0-2.089.889-2.094 1.989L6 11.984a1.957 1.957 0 0 0 .609 1.42c.195.187.426.335.681.436s.528.153.804.153h2.122v9.327c0 1.542.183 2.737.559 3.651.944 2.294 3.186 5.029 8.509 5.029 1.318 0 2.571-.132 3.726-.392l.231-.052c.977-.219 2.226-.493 3.567-1.103.357-.162.659-.418.87-.738s.323-.689.323-1.067v-4.664c0-.371-.108-.735-.312-1.05s-.497-.571-.844-.737a2.17 2.17 0 0 0-2.192.186c-1.246.891-2.841 1.078-3.658 1.078-.838 0-1.149-.29-1.218-.367-.036-.157-.135-.743-.135-2.405l.007-6.701h5.216c1.156 0 2.094-.895 2.094-1.999V8.991c0-1.104-.938-1.999-2.094-1.999h-5.246V1.998c0-1.104-.938-1.999-2.094-1.999z"/></symbol><symbol id="icon-email" viewBox="0 0 32 32"><path d="M28.445 5.333H3.556a1.776 1.776 0 0 0-1.778 1.778v17.778a1.776 1.776 0 0 0 1.778 1.778h24.889a1.776 1.776 0 0 0 1.778-1.778V7.111a1.776 1.776 0 0 0-1.778-1.778zm-1.369 19.556H5.032l6.222-6.436-1.28-1.236-6.418 6.64V8.461l11.049 10.996a1.779 1.779 0 0 0 2.506 0L28.444 8.186v15.556L21.902 17.2l-1.253 1.253 6.427 6.436zM4.72 7.111h22.284L15.857 18.196 4.719 7.111z"/></symbol><symbol id="icon-location" viewBox="0 0 32 32"><path d="M25 13a9 9 0 1 0-18 0c0 3.692 2.954 8.504 9 14.268 6.046-5.764 9-10.576 9-14.268zm-9 17C8.666 23.334 5 17.666 5 13a11 11 0 0 1 22 0c0 4.666-3.666 10.334-11 17z"/><path d="M16 16a3.004 3.004 0 0 0 3-3 3.004 3.004 0 0 0-3-3 2.998 2.998 0 0 0-3 3 2.998 2.998 0 0 0 3 3zm0 2a4.997 4.997 0 0 1-5-5 4.997 4.997 0 0 1 5-5 4.997 4.997 0 0 1 5 5 4.997 4.997 0 0 1-5 5z"/></symbol><symbol id="icon-pomidor" viewBox="0 0 32 32"><path d="M31.979 15.799C31.332 3.75 25.522 1.988 20.839 1.988c-1.183.001-2.294.113-3.232.201-.008-.548.014-1.135.1-1.783.002-.009-.002-.017-.003-.026.001-.005.003-.009.003-.014 0-.202-.354-.366-.793-.366-.437 0-.791.164-.791.366-.12.654-.283 1.298-.489 1.926-6.18.04-14.32 1.09-15.563 13.098C-.83 24.105 7.114 32 16.051 32S32.45 24.557 31.98 15.799zM17.939 3.878c.218-.021.444-.042.677-.062-.279.121-.551.246-.806.371-.019-.09-.032-.198-.049-.294l.178-.016zm-2.965.136c-.07.156-.138.306-.204.443a5.023 5.023 0 0 0-.498-.424c.234-.009.467-.014.701-.019zm12.038 21.315a14.62 14.62 0 0 1-10.962 4.957c-4.27 0-8.512-2.025-11.347-5.417-2.297-2.749-3.378-6.048-3.042-9.29.63-6.085 3.142-8.991 6.367-10.367 3.124-.622 6.064.52 6.064.52S7.41 3.955 4.79 13.154c3.298-5.508 8.972-3.887 10.465-5.917 0 3.925 2.662 2.021 4.008 3.789 1.731 2.273 2.365 6.346 4.356 7.149-1.962-4.512 1.25-4.336-3.262-10.391 2.377 1.582 3.61-.019 6.855 1.407-2.777-4.863-7.22-3.457-7.22-3.457s1.808-1.765 3.725-1.716c3.238.81 6.217 3.537 6.666 11.883.182 3.409-1.014 6.758-3.37 9.431z"/></symbol></defs></svg>