<svg aria-hidden="true" style="position: absolute; width: 0; height: 0; overflow: hidden;" version="1.1" xmlns="http://www.w3.org/2000/svg" xmlns:xlink="http://www.w3.org/1999/xlink">
<defs>
<symbol id="icon-arrow-right" viewBox="0 0 32 32">
<path d="M21.733 27.718c0.171-0.185 0.267-0.433 0.267-0.691s-0.096-0.506-0.267-0.691l-9.567-10.336 9.567-10.334c0.171-0.185 0.267-0.433 0.267-0.691s-0.096-0.506-0.267-0.691c-0.083-0.090-0.183-0.162-0.293-0.21s-0.228-0.074-0.347-0.074c-0.119 0-0.237 0.025-0.347 0.074s-0.209 0.12-0.293 0.21l-10.174 10.994c-0.179 0.193-0.279 0.452-0.279 0.722s0.1 0.529 0.279 0.722l10.174 10.994c0.083 0.090 0.183 0.162 0.293 0.21s0.228 0.074 0.347 0.074c0.119 0 0.237-0.025 0.347-0.074s0.209-0.12 0.293-0.21v0.002z"></path>
</symbol>
<symbol id="icon-arrow-left" viewBox="0 0 32 32">
<path d="M10.267 4.282c-0.171 0.185-0.267 0.433-0.267 0.691s0.096 0.506 0.267 0.691l9.567 10.336-9.567 10.334c-0.171 0.185-0.267 0.433-0.267 0.691s0.096 0.506 0.267 0.691c0.083 0.090 0.183 0.162 0.293 0.21s0.228 0.074 0.347 0.074c0.119 0 0.237-0.025 0.347-0.074s0.209-0.12 0.293-0.21l10.174-10.994c0.179-0.193 0.279-0.452 0.279-0.722s-0.1-0.529-0.279-0.722l-10.174-10.994c-0.083-0.090-0.183-0.162-0.293-0.21s-0.228-0.074-0.347-0.074c-0.119 0-0.237 0.025-0.347 0.074s-0.209 0.12-0.293 0.21v-0.002z"></path>
</symbol>
<symbol id="icon-arrow-botom" viewBox="0 0 32 32">
<path d="M27.718 10.267c-0.185-0.171-0.433-0.267-0.691-0.267s-0.506 0.096-0.691 0.267l-10.336 9.567-10.334-9.567c-0.185-0.171-0.433-0.267-0.691-0.267s-0.506 0.096-0.691 0.267c-0.090 0.083-0.162 0.183-0.21 0.293s-0.074 0.228-0.074 0.347c0 0.119 0.025 0.237 0.074 0.347s0.12 0.209 0.21 0.293l10.994 10.174c0.193 0.179 0.452 0.279 0.722 0.279s0.529-0.1 0.722-0.279l10.994-10.174c0.090-0.083 0.162-0.183 0.21-0.293s0.074-0.228 0.074-0.347c0-0.119-0.025-0.237-0.074-0.347s-0.12-0.209-0.21-0.293h0.002z"></path>
</symbol>
<symbol id="icon-arrow-top" viewBox="0 0 32 32">
<path d="M4.282 21.733c0.185 0.171 0.433 0.267 0.691 0.267s0.506-0.096 0.691-0.267l10.336-9.567 10.334 9.567c0.185 0.171 0.433 0.267 0.691 0.267s0.506-0.096 0.691-0.267c0.090-0.083 0.162-0.183 0.21-0.293s0.074-0.228 0.074-0.347c0-0.119-0.025-0.237-0.074-0.347s-0.12-0.209-0.21-0.293l-10.994-10.174c-0.193-0.179-0.452-0.279-0.722-0.279s-0.529 0.1-0.722 0.279l-10.994 10.174c-0.090 0.083-0.162 0.183-0.21 0.293s-0.074 0.228-0.074 0.347c0 0.119 0.025 0.237 0.074 0.347s0.12 0.209 0.21 0.293h-0.002z"></path>
</symbol>
<symbol id="icon-menu-nod" viewBox="0 0 32 32">
<path d="M16 13.889l7.389-7.389 2.111 2.111-7.389 7.389 7.389 7.389-2.111 2.111-7.389-7.389-7.389 7.389-2.111-2.111 7.389-7.389-7.389-7.389 2.111-2.111 7.389 7.389z"></path>
</symbol>
<symbol id="icon-menu" viewBox="0 0 32 32">
<path stroke-linejoin="miter" stroke-linecap="butt" stroke-miterlimit="4" stroke-width="1.0323" d="M0 7.742h32"></path>
<path stroke-linejoin="miter" stroke-linecap="butt" stroke-miterlimit="4" stroke-width="1.0323" d="M0 16h32"></path>
<path stroke-linejoin="miter" stroke-linecap="butt" stroke-miterlimit="4" stroke-width="1.0323" d="M0 24.258h32"></path>
</symbol>
<symbol id="icon-twitter" viewBox="0 0 32 32">
<path d="M21.384 3.994c1.652 0 3.143 0.674 4.193 1.756 1.307-0.252 2.539-0.712 3.645-1.348-0.428 1.297-1.339 2.385-2.524 3.073 1.159-0.136 2.269-0.433 3.299-0.877-0.772 1.113-1.744 2.094-2.866 2.877 0.010 0.238 0.016 0.478 0.016 0.717 0 7.343-5.778 15.813-16.344 15.813-3.243 0-6.264-0.923-8.805-2.499 0.454 0.053 0.912 0.079 1.369 0.079 2.691 0 5.169-0.888 7.136-2.38-2.515-0.043-4.638-1.651-5.366-3.858 0.357 0.067 0.719 0.1 1.081 0.1 0.522 0 1.031-0.067 1.512-0.195-2.628-0.509-4.608-2.755-4.608-5.449v-0.071c0.775 0.417 1.66 0.667 2.603 0.696-1.542-0.998-2.556-2.696-2.556-4.625 0-1.019 0.284-1.974 0.778-2.792 2.832 3.36 7.065 5.573 11.84 5.806-0.098-0.406-0.149-0.834-0.149-1.265 0-3.070 2.572-5.557 5.746-5.557zM29.998 6.598v0zM21.384 2c-3.925 0-7.176 2.86-7.677 6.555-3.211-0.643-6.132-2.339-8.23-4.827-0.188-0.223-0.422-0.401-0.686-0.524s-0.552-0.186-0.844-0.186c-0.052 0-0.105 0.002-0.157 0.006-0.317 0.025-0.623 0.125-0.893 0.292s-0.497 0.395-0.661 0.667c-0.697 1.153-1.065 2.474-1.065 3.821 0 0.899 0.162 1.774 0.469 2.592-0.327 0.362-0.515 0.836-0.515 1.337v0.071c0 1.953 0.774 3.765 2.059 5.123-0.074 0.342-0.057 0.7 0.055 1.043 0.443 1.345 1.25 2.505 2.297 3.388-0.703 0.156-1.428 0.235-2.168 0.235-0.391 0-0.772-0.021-1.132-0.065-0.080-0.010-0.159-0.013-0.238-0.013-0.84 0-1.602 0.528-1.884 1.333-0.31 0.882 0.034 1.86 0.83 2.354 2.952 1.832 6.362 2.8 9.861 2.8 11.37 0 18.209-8.877 18.342-17.549 0.933-0.77 1.757-1.662 2.45-2.653 0.263-0.345 0.405-0.766 0.405-1.199 0-0.678-0.34-1.278-0.858-1.638 0.224-0.767-0.032-1.597-0.656-2.105-0.365-0.296-0.812-0.447-1.262-0.447-0.351-0-0.695 0.092-0.999 0.267-0.661 0.38-1.367 0.68-2.111 0.897-1.346-1.010-3.015-1.573-4.729-1.573z"></path>
</symbol>
<symbol id="icon-youtube" viewBox="0 0 32 32">
<path d="M29.384 5.513c-0.866-0.65-3.28-1.513-13.392-1.513-10.837 0-12.445 0.991-12.961 1.316-2.746 1.72-3.007 9.332-3.031 10.876 0.033 2.039 0.349 8.822 3.029 10.5 0.515 0.323 2.114 1.309 12.963 1.309 10.119 0 12.53-0.859 13.392-1.506 2.34-1.755 2.61-7.799 2.616-10.329-0.006-2.035-0.211-8.846-2.616-10.652v-0zM28.217 24.804c-0.348 0.261-2.347 1.114-12.226 1.114-9.55 0-11.554-0.773-11.933-1.011-0.964-0.603-1.981-3.803-2.061-8.721 0.079-4.907 1.11-8.49 2.063-9.085 0.38-0.239 2.391-1.018 11.931-1.018 9.871 0 11.875 0.858 12.226 1.12 0.856 0.642 1.772 4.024 1.785 8.969-0.013 5.022-0.935 7.995-1.785 8.632v0zM22.506 15.181l-8.988-5.749c-0.152-0.095-0.325-0.147-0.502-0.149s-0.351 0.044-0.505 0.134c-0.154 0.091-0.283 0.222-0.372 0.382s-0.136 0.341-0.137 0.525v11.5c0 0.276 0.105 0.541 0.293 0.736s0.441 0.305 0.706 0.305c0.182 0 0.36-0.052 0.516-0.149l8.989-5.751c0.3-0.189 0.483-0.527 0.483-0.892s-0.183-0.704-0.483-0.892v0zM14.001 19.979v-7.812l6.056 3.906-6.056 3.907z"></path>
</symbol>
<symbol id="icon-instagram" viewBox="0 0 32 32">
<path d="M16 0c4.355 0 4.892 0.032 6.596 0.095 1.673 0.063 2.84 0.347 3.882 0.757 1.073 0.41 1.957 0.947 2.84 1.83s1.42 1.767 1.83 2.84c0.41 1.041 0.694 2.209 0.757 3.882 0.063 1.704 0.095 2.241 0.095 6.596s-0.032 4.892-0.095 6.596c-0.063 1.673-0.347 2.84-0.757 3.882-0.41 1.073-0.947 1.957-1.83 2.84s-1.767 1.42-2.84 1.83c-1.042 0.41-2.209 0.694-3.882 0.757-1.704 0.063-2.241 0.095-6.596 0.095s-4.892-0.032-6.596-0.095c-1.673-0.063-2.84-0.347-3.882-0.757-1.073-0.41-1.957-0.947-2.84-1.83s-1.42-1.767-1.83-2.84c-0.41-1.042-0.694-2.209-0.757-3.882-0.063-1.704-0.095-2.241-0.095-6.596s0.032-4.892 0.095-6.596c0.063-1.673 0.347-2.84 0.757-3.882 0.41-1.073 0.947-1.957 1.83-2.84s1.767-1.42 2.84-1.83c1.041-0.41 2.209-0.694 3.882-0.757 1.704-0.063 2.241-0.095 6.596-0.095zM16 2.083c-4.544 0-5.081 0.032-6.848 0.095-1.641 0.063-2.556 0.379-3.156 0.6-1.546 0.631-2.588 1.673-3.219 3.219-0.221 0.6-0.536 1.515-0.6 3.156-0.063 1.767-0.095 2.304-0.095 6.848s0.032 5.081 0.095 6.848c0.063 1.641 0.379 2.556 0.6 3.156 0.631 1.546 1.673 2.588 3.219 3.219 0.6 0.221 1.515 0.537 3.156 0.6 1.767 0.063 2.304 0.095 6.848 0.095s5.081-0.032 6.848-0.095c1.641-0.063 2.556-0.379 3.156-0.6 1.546-0.631 2.588-1.673 3.219-3.219 0.221-0.6 0.537-1.515 0.6-3.156 0.063-1.767 0.095-2.304 0.095-6.848s-0.032-5.081-0.095-6.848c-0.063-1.641-0.379-2.556-0.6-3.156-0.631-1.546-1.673-2.588-3.219-3.219-0.6-0.221-1.515-0.536-3.156-0.6-1.767-0.063-2.304-0.095-6.848-0.095zM16 22.406c3.535 0 6.406-2.872 6.406-6.406s-2.872-6.406-6.406-6.406c-3.535 0-6.406 2.872-6.406 6.406s2.872 6.406 6.406 6.406zM16 7.795c4.544 0 8.205 3.661 8.205 8.205s-3.661 8.205-8.205 8.205c-4.544 0-8.205-3.661-8.205-8.205s3.661-8.205 8.205-8.205zM26.477 7.479c0 1.073-0.884 1.893-1.957 1.893s-1.894-0.821-1.894-1.893 0.821-1.957 1.894-1.957c1.073 0 1.957 0.884 1.957 1.957z"></path>
</symbol>
<symbol id="icon-tumblr" viewBox="0 0 32 32">
<path d="M17.524 1.999l-0 6.992h7.339v2.998h-7.307l-0.010 8.7c0 1.617 0.088 2.655 0.267 3.116 0.279 0.726 1.295 1.656 3.18 1.656 1.462 0 3.435-0.42 4.913-1.476v4.664c-1.233 0.561-2.379 0.788-3.378 1.014-1 0.225-2.083 0.339-3.244 0.339-1.294 0-5.028-0.034-6.56-3.761-0.276-0.671-0.414-1.645-0.414-2.92v-11.326h-4.216l0.020-3.065c1.396 0 5.583-0.809 5.583-6.93l3.827-0zM17.524 0l-3.827-0c-1.156 0-2.094 0.895-2.094 1.999 0 4.576-2.671 4.931-3.489 4.931-1.152 0-2.089 0.889-2.094 1.989l-0.020 3.065c-0.003 0.532 0.217 1.042 0.609 1.42 0.195 0.187 0.426 0.335 0.681 0.436s0.528 0.153 0.804 0.153h2.122v9.327c0 1.542 0.183 2.737 0.559 3.651 0.944 2.294 3.186 5.029 8.509 5.029 1.318 0 2.571-0.132 3.726-0.392l0.231-0.052c0.977-0.219 2.226-0.493 3.567-1.103 0.357-0.162 0.659-0.418 0.87-0.738s0.323-0.689 0.323-1.067v-4.664c0-0.371-0.108-0.735-0.312-1.050s-0.497-0.571-0.844-0.737c-0.296-0.142-0.618-0.212-0.938-0.212-0.452 0-0.892 0.14-1.254 0.398-1.246 0.891-2.841 1.078-3.658 1.078-0.838 0-1.149-0.29-1.218-0.367-0.036-0.157-0.135-0.743-0.135-2.405l0.007-6.701h5.216c1.156 0 2.094-0.895 2.094-1.999v-2.998c0-1.104-0.938-1.999-2.094-1.999h-5.246v-4.994c0-1.104-0.938-1.999-2.094-1.999h0z"></path>
</symbol>
<symbol id="icon-email" viewBox="0 0 32 32">
<path d="M28.445 5.333h-24.889c-0.471 0-0.924 0.187-1.257 0.521s-0.521 0.786-0.521 1.257v17.778c0 0.471 0.187 0.924 0.521 1.257s0.786 0.521 1.257 0.521h24.889c0.471 0 0.924-0.187 1.257-0.521s0.521-0.786 0.521-1.257v-17.778c0-0.471-0.187-0.924-0.521-1.257s-0.786-0.521-1.257-0.521zM27.076 24.889h-22.044l6.222-6.436-1.28-1.236-6.418 6.64v-15.396l11.049 10.996c0.333 0.331 0.784 0.517 1.253 0.517s0.92-0.186 1.253-0.517l11.333-11.271v15.556l-6.542-6.542-1.253 1.253 6.427 6.436zM4.72 7.111h22.284l-11.147 11.085-11.138-11.085z"></path>
</symbol>
<symbol id="icon-location" viewBox="0 0 32 32">
<path d="M25 13c0-2.387-0.948-4.676-2.636-6.364s-3.977-2.636-6.364-2.636-4.676 0.948-6.364 2.636c-1.688 1.688-2.636 3.977-2.636 6.364 0 3.692 2.954 8.504 9 14.268 6.046-5.764 9-10.576 9-14.268zM16 30c-7.334-6.666-11-12.334-11-17 0-2.917 1.159-5.715 3.222-7.778s4.861-3.222 7.778-3.222c2.917 0 5.715 1.159 7.778 3.222s3.222 4.861 3.222 7.778c0 4.666-3.666 10.334-11 17z"></path>
<path d="M16 16c0.796 0 1.559-0.316 2.121-0.879s0.879-1.326 0.879-2.121c0-0.796-0.316-1.559-0.879-2.121s-1.326-0.879-2.121-0.879-1.559 0.316-2.121 0.879c-0.563 0.563-0.879 1.326-0.879 2.121s0.316 1.559 0.879 2.121c0.563 0.563 1.326 0.879 2.121 0.879zM16 18c-1.326 0-2.598-0.527-3.536-1.464s-1.464-2.209-1.464-3.536c0-1.326 0.527-2.598 1.464-3.536s2.209-1.464 3.536-1.464c1.326 0 2.598 0.527 3.536 1.464s1.464 2.209 1.464 3.536c0 1.326-0.527 2.598-1.464 3.536s-2.209 1.464-3.536 1.464z"></path>
</symbol>
<symbol id="icon-pomidor" viewBox="0 0 32 32">
<path d="M31.979 15.799c-0.647-12.049-6.457-13.811-11.14-13.811h-0c-1.183 0.001-2.294 0.113-3.232 0.201-0.008-0.548 0.014-1.135 0.1-1.783 0.002-0.009-0.002-0.017-0.003-0.026 0.001-0.005 0.003-0.009 0.003-0.014 0-0.202-0.354-0.366-0.793-0.366-0.437 0-0.791 0.164-0.791 0.366-0.12 0.654-0.283 1.298-0.489 1.926-6.18 0.040-14.32 1.090-15.563 13.098-0.901 8.715 7.043 16.61 15.98 16.61s16.399-7.443 15.929-16.201zM17.939 3.878c0.218-0.021 0.444-0.042 0.677-0.062-0.279 0.121-0.551 0.246-0.806 0.371-0.019-0.090-0.032-0.198-0.049-0.294l0.178-0.016zM14.974 4.014c-0.070 0.156-0.138 0.306-0.204 0.443-0.157-0.152-0.323-0.294-0.498-0.424 0.234-0.009 0.467-0.014 0.701-0.019zM27.012 25.329c-2.776 3.15-6.772 4.957-10.962 4.957-4.27 0-8.512-2.025-11.347-5.417-2.297-2.749-3.378-6.048-3.042-9.29 0.63-6.085 3.142-8.991 6.367-10.367 3.124-0.622 6.064 0.52 6.064 0.52s-6.682-1.777-9.302 7.422c3.298-5.508 8.972-3.887 10.465-5.917 0 3.925 2.662 2.021 4.008 3.789 1.731 2.273 2.365 6.346 4.356 7.149-1.962-4.512 1.25-4.336-3.262-10.391 2.377 1.582 3.61-0.019 6.855 1.407-2.777-4.863-7.22-3.457-7.22-3.457s1.808-1.765 3.725-1.716c3.238 0.81 6.217 3.537 6.666 11.883 0.182 3.409-1.014 6.758-3.37 9.431z"></path>
</symbol>
</defs>
</svg>
